<?xml version="1.0" encoding="UTF-8"?>
<svg xmlns="http://www.w3.org/2000/svg" version="1.1" viewBox="0 0 876 193">
  <!-- Generator: Adobe Illustrator 29.2.0, SVG Export Plug-In . SVG Version: 2.1.0 Build 108)  -->
  <defs>
    <style>
      .st0 {
        fill: #c41011;
      }

      .st1 {
        fill: #c4c4c4;
      }

      .st2 {
        display: none;
      }
    </style>
  </defs>
  <g id="min_x5F_space" class="st2">
    <path class="st1" d="M410.48-18.64v9.33c0,1.78-.84,2.67-2.52,2.67h-78.68c-.99,0-1.48.5-1.48,1.48V13.52c0,1.78-.84,2.67-2.52,2.67h-7.56c-1.68,0-2.52-.89-2.52-2.67v-54.97c0-1.78.84-2.67,2.52-2.67h7.56c1.68,0,2.52.89,2.52,2.67v18.67c0,1.09.5,1.63,1.48,1.63h78.68c1.68,0,2.52.84,2.52,2.52Z"/>
    <path class="st1" d="M911.51,176.67h-9.33c-1.78,0-2.67-.84-2.67-2.52v-78.68c0-.99-.5-1.48-1.48-1.48h-18.67c-1.78,0-2.67-.84-2.67-2.52v-7.56c0-1.68.89-2.52,2.67-2.52h54.97c1.78,0,2.67.84,2.67,2.52v7.56c0,1.68-.89,2.52-2.67,2.52h-18.67c-1.09,0-1.63.5-1.63,1.48v78.68c0,1.68-.84,2.52-2.52,2.52Z"/>
    <path class="st1" d="M-24.49,177.67h-9.33c-1.78,0-2.67-.84-2.67-2.52v-78.68c0-.99-.5-1.48-1.48-1.48h-18.67c-1.78,0-2.67-.84-2.67-2.52v-7.56c0-1.68.89-2.52,2.67-2.52H-1.67c1.78,0,2.67.84,2.67,2.52v7.56c0,1.68-.89,2.52-2.67,2.52h-18.67c-1.09,0-1.63.5-1.63,1.48v78.68c0,1.68-.84,2.52-2.52,2.52Z"/>
    <path class="st1" d="M346.48,202.36v9.33c0,1.78-.84,2.67-2.52,2.67h-78.68c-.99,0-1.48.5-1.48,1.48v18.67c0,1.78-.84,2.67-2.52,2.67h-7.56c-1.68,0-2.52-.89-2.52-2.67v-54.97c0-1.78.84-2.67,2.52-2.67h7.56c1.68,0,2.52.89,2.52,2.67v18.67c0,1.09.5,1.63,1.48,1.63h78.68c1.68,0,2.52.84,2.52,2.52Z"/>
  </g>
  <g id="Layer_1">
    <g>
      <path class="st0" d="M400.61,192.78c-.64,0-1.29-.12-1.91-.38-1.87-.78-3.09-2.6-3.09-4.63v-104.23l-38.07-28.6-.05,84.28c0,2.03-1.22,3.85-3.1,4.63-1.87.78-4.03.35-5.46-1.09l-31.29-31.34c-.94-.94-1.47-2.21-1.47-3.54l-.03-86.54c0-1.9,1.07-3.64,2.77-4.48,1.7-.85,3.73-.66,5.25.48l23.36,17.55.02-29.64c0-1.9,1.08-3.64,2.78-4.48,1.7-.85,3.74-.66,5.25.48l79.63,60c1.26.95,2,2.43,2,4v90.9c0,1.33-.53,2.6-1.46,3.54l-31.57,31.63c-.96.96-2.24,1.47-3.55,1.47ZM357.53,42.4l46.08,34.62c1.26.95,2,2.43,2,4.01v94.62l21.55-21.59v-86.33l-69.61-52.45-.02,27.12ZM432.18,156.14h.02-.02ZM326.18,105.8l21.28,21.31.05-79.7-21.35-16.04.02,74.43Z"/>
      <g>
        <path class="st0" d="M11.87,176.76H2.52C.84,176.76,0,175.92,0,174.24v-90.34C0,82.22.84,81.38,2.52,81.38h34.71c7.22,0,12.88,2.05,16.99,6.16,4.1,4.11,6.16,9.77,6.16,16.99v12.46c0,11.37-4.7,18.54-14.09,21.51v.59l16.47,34.71c1.09,1.98.44,2.97-1.93,2.97h-9.2c-2.37,0-3.91-.84-4.6-2.52l-15.87-34.12h-14.98c-1.19,0-1.78.5-1.78,1.48v32.64c0,1.68-.84,2.52-2.52,2.52ZM16.02,128.25h18.84c7.32,0,10.98-3.61,10.98-10.83v-12.46c0-7.32-3.66-10.98-10.98-10.98h-18.84c-1.09,0-1.63.5-1.63,1.48v31.3c0,.99.54,1.48,1.63,1.48Z"/>
        <path class="st0" d="M86.81,176.73h-10.68c-1.39,0-1.88-.84-1.48-2.52l25.81-90.34c.49-1.68,1.68-2.52,3.56-2.52h14.83c1.98,0,3.16.84,3.56,2.52l25.81,90.34c.39,1.68-.15,2.52-1.63,2.52h-10.53c-.89,0-1.51-.17-1.85-.52-.35-.35-.62-1.01-.82-2l-5.64-19.28h-32.63l-5.64,19.28c-.4,1.68-1.29,2.52-2.67,2.52ZM111.14,95.59l-13.05,47.47h26.85l-13.2-47.47h-.59Z"/>
        <path class="st0" d="M199.33,176.73h-17.21c-7.32,0-12.98-2.03-16.98-6.08-4.01-4.05-6.01-9.69-6.01-16.91v-49.4c0-7.32,2-12.98,6.01-16.99s9.66-6.01,16.98-6.01h17.21c7.22,0,12.85,2,16.91,6.01,4.05,4.01,6.08,9.67,6.08,16.99v7.12c0,1.78-.89,2.67-2.67,2.67h-9.35c-1.68,0-2.52-.89-2.52-2.67v-6.53c0-7.32-3.56-10.98-10.68-10.98h-12.91c-7.12,0-10.68,3.66-10.68,10.98v48.21c0,7.32,3.56,10.98,10.68,10.98h12.91c7.12,0,10.68-3.66,10.68-10.98v-6.53c0-1.78.84-2.67,2.52-2.67h9.35c1.78,0,2.67.89,2.67,2.67v7.12c0,7.22-2.03,12.86-6.08,16.91-4.06,4.06-9.69,6.08-16.91,6.08Z"/>
        <path class="st0" d="M288.39,176.73h-47.47c-1.68,0-2.52-.84-2.52-2.52v-90.34c0-1.68.84-2.52,2.52-2.52h47.47c1.58,0,2.37.84,2.37,2.52v7.57c0,1.68-.79,2.52-2.37,2.52h-33.82c-1.19,0-1.78.5-1.78,1.48v25.07c0,.99.59,1.48,1.78,1.48h28.63c1.78,0,2.67.84,2.67,2.52v7.57c0,1.68-.89,2.52-2.67,2.52h-28.63c-1.19,0-1.78.5-1.78,1.48v26.4c0,1.09.59,1.63,1.78,1.63h33.82c1.58,0,2.37.84,2.37,2.52v7.57c0,1.68-.79,2.52-2.37,2.52Z"/>
        <path class="st0" d="M525.3,173.79l-16.47-34.71v-.59c9.39-2.97,14.09-10.14,14.09-21.51v-12.46c0-7.22-2.05-12.88-6.16-16.99-4.11-4.1-9.77-6.16-16.99-6.16h-34.71c-1.68,0-2.52.84-2.52,2.52v90.34c0,1.68.84,2.52,2.52,2.52h9.34c1.68,0,2.52-.84,2.52-2.52v-32.64c0-.99.59-1.48,1.78-1.48h14.98l15.87,34.12c.69,1.68,2.23,2.52,4.6,2.52h9.2c2.37,0,3.01-.99,1.93-2.97ZM508.39,117.42c0,7.22-3.66,10.83-10.98,10.83h-18.84c-1.09,0-1.63-.49-1.63-1.48v-31.3c0-.99.54-1.48,1.63-1.48h18.84c7.32,0,10.98,3.66,10.98,10.98v12.46Z"/>
        <path class="st0" d="M589.98,176.76h-47.47c-1.68,0-2.52-.84-2.52-2.52v-90.34c0-1.68.84-2.52,2.52-2.52h47.47c1.58,0,2.37.84,2.37,2.52v7.57c0,1.68-.79,2.52-2.37,2.52h-33.82c-1.19,0-1.78.5-1.78,1.48v25.07c0,.99.59,1.48,1.78,1.48h28.63c1.78,0,2.67.84,2.67,2.52v7.57c0,1.68-.89,2.52-2.67,2.52h-28.63c-1.19,0-1.78.5-1.78,1.48v26.4c0,1.09.59,1.63,1.78,1.63h33.82c1.58,0,2.37.84,2.37,2.52v7.57c0,1.68-.79,2.52-2.37,2.52Z"/>
        <path class="st0" d="M606.45,153.62v-3.86c0-1.68.84-2.52,2.52-2.52h9.49c1.68,0,2.52.84,2.52,2.52v2.67c0,4.15.91,7.15,2.74,8.97,1.83,1.83,4.87,2.74,9.12,2.74h10.24c4.25,0,7.32-.96,9.2-2.89,1.88-1.93,2.82-5.07,2.82-9.42v-3.41c0-3.16-1.21-5.66-3.63-7.49-2.42-1.83-5.41-3.02-8.97-3.56-3.56-.54-7.47-1.31-11.72-2.3-4.25-.99-8.16-2.13-11.72-3.41-3.56-1.28-6.55-3.71-8.97-7.27-2.42-3.56-3.63-8.11-3.63-13.65v-6.23c0-7.22,2.05-12.88,6.16-16.99,4.1-4.1,9.76-6.16,16.99-6.16h15.72c7.32,0,13.03,2.05,17.13,6.16,4.1,4.11,6.16,9.77,6.16,16.99v3.26c0,1.68-.84,2.52-2.52,2.52h-9.49c-1.68,0-2.52-.84-2.52-2.52v-1.93c0-4.25-.92-7.29-2.74-9.12-1.83-1.83-4.87-2.74-9.12-2.74h-9.35c-4.25,0-7.29.96-9.12,2.89-1.83,1.93-2.74,5.22-2.74,9.86v4.6c0,4.45,3.21,7.47,9.64,9.05,2.87.69,6.01,1.29,9.42,1.78,3.41.5,6.85,1.24,10.31,2.22,3.46.99,6.62,2.3,9.49,3.93,2.87,1.63,5.19,4.11,6.97,7.42,1.78,3.31,2.67,7.34,2.67,12.09v5.79c0,7.22-2.05,12.88-6.16,16.99-4.11,4.1-9.77,6.16-16.99,6.16h-16.61c-7.22,0-12.91-2.05-17.06-6.16-4.15-4.1-6.23-9.77-6.23-16.99Z"/>
        <path class="st0" d="M736.39,81.38h9.35c1.78,0,2.67.79,2.67,2.37v70.02c0,7.22-2.05,12.86-6.16,16.91-4.11,4.06-9.77,6.08-16.99,6.08h-16.47c-7.22,0-12.86-2.03-16.91-6.08-4.06-4.05-6.08-9.69-6.08-16.91v-69.87c0-1.68.84-2.52,2.52-2.52h9.35c1.68,0,2.52.84,2.52,2.52v69.28c0,7.32,3.56,10.98,10.68,10.98h12.16c7.22,0,10.83-3.66,10.83-10.98v-69.28c0-1.68.84-2.52,2.52-2.52Z"/>
        <path class="st0" d="M816.79,176.76h-48.06c-1.68,0-2.52-.84-2.52-2.52v-90.34c0-1.68.84-2.52,2.52-2.52h9.34c1.68,0,2.52.84,2.52,2.52v78.47c0,.99.59,1.48,1.78,1.48h34.42c1.68,0,2.52.89,2.52,2.67v7.71c0,1.68-.84,2.52-2.52,2.52Z"/>
        <path class="st0" d="M850.49,176.76h-9.34c-1.78,0-2.67-.84-2.67-2.52v-78.77c0-.99-.5-1.48-1.48-1.48h-18.69c-1.78,0-2.67-.84-2.67-2.52v-7.57c0-1.68.89-2.52,2.67-2.52h55.03c1.78,0,2.67.84,2.67,2.52v7.57c0,1.68-.89,2.52-2.67,2.52h-18.69c-1.09,0-1.63.5-1.63,1.48v78.77c0,1.68-.84,2.52-2.52,2.52Z"/>
      </g>
    </g>
  </g>
</svg>